<svg xmlns="http://www.w3.org/2000/svg" viewBox="0 0 64 64" fill="none">
  <rect width="64" height="64" rx="8" fill="#D4A76A"/>
  <g stroke="#8B6914" stroke-width="1" opacity="0.6">
    <line x1="12" y1="10" x2="52" y2="10"/>
    <line x1="12" y1="18" x2="52" y2="18"/>
    <line x1="12" y1="26" x2="52" y2="26"/>
    <line x1="12" y1="34" x2="52" y2="34"/>
    <line x1="12" y1="42" x2="52" y2="42"/>
    <line x1="12" y1="50" x2="52" y2="50"/>
    <line x1="12" y1="58" x2="52" y2="58"/>
    <line x1="12" y1="10" x2="12" y2="58"/>
    <line x1="20" y1="10" x2="20" y2="58"/>
    <line x1="28" y1="10" x2="28" y2="58"/>
    <line x1="36" y1="10" x2="36" y2="58"/>
    <line x1="44" y1="10" x2="44" y2="58"/>
    <line x1="52" y1="10" x2="52" y2="58"/>
  </g>
  <circle cx="24" cy="26" r="5" fill="#1a1a1a" stroke="#000" stroke-width="0.5"/>
  <circle cx="40" cy="26" r="5" fill="#f5f5f5" stroke="#ccc" stroke-width="0.5"/>
  <circle cx="24" cy="38" r="5" fill="#1a1a1a" stroke="#000" stroke-width="0.5"/>
  <circle cx="40" cy="38" r="5" fill="#f5f5f5" stroke="#ccc" stroke-width="0.5"/>
</svg>
